<!DOCTYPE svg PUBLIC "-//W3C//DTD SVG 1.1//EN" "http://www.w3.org/Graphics/SVG/1.1/DTD/svg11.dtd">
<!-- Uploaded to: SVG Repo, www.svgrepo.com, Transformed by: SVG Repo Mixer Tools -->
<svg fill="#ffffff" height="800px" width="800px" version="1.1" id="Layer_1" xmlns="http://www.w3.org/2000/svg" xmlns:xlink="http://www.w3.org/1999/xlink" viewBox="0 0 512 512" xml:space="preserve" stroke="#ffffff">
<g id="SVGRepo_bgCarrier" stroke-width="0"/>
<g id="SVGRepo_tracerCarrier" stroke-linecap="round" stroke-linejoin="round"/>
<g id="SVGRepo_iconCarrier"> <g> <g> <path d="M504.533,379.733h-9.6v-282.7c0-18.8-14.242-33.033-33.067-33.033h-409.6c-18.825,0-35.2,14.233-35.2,33.033v282.7H9.6 c-4.717,0-9.6,2.75-9.6,7.467v25.6C0,431.625,16.367,448,35.167,448h443.8c18.8,0,33.033-16.375,33.033-35.2v-25.6 C512,382.483,509.25,379.733,504.533,379.733z M34.133,97.033c0-9.392,8.725-15.967,18.133-15.967h409.6 c9.408,0,16,6.575,16,15.967v282.7h-144c-4.717,0-9.6,2.75-9.6,7.467v9.6h-128v-9.6c0-4.717-2.75-7.467-7.467-7.467H34.133V97.033 z M494.933,412.8c0,9.408-6.575,18.133-15.967,18.133h-443.8c-9.392,0-18.1-8.725-18.1-18.133v-16H179.2v7.467 c0,4.717,4.883,9.6,9.6,9.6h145.067c4.717,0,7.467-4.883,7.467-9.6V396.8h153.6V412.8z"/> </g> </g> <g> <g> <path d="M452.267,98.133H59.733c-4.713,0-8.533,3.821-8.533,8.533v247.467c0,4.713,3.821,8.533,8.533,8.533h392.533 c4.713,0,8.533-3.821,8.533-8.533V106.667C460.8,101.954,456.979,98.133,452.267,98.133z M443.733,345.6H68.267V115.2h375.467 V345.6z"/> </g> </g> <g> <g> <path d="M266.525,220.867c-18.483-2.308-26.592-4.067-26.592-21.4c0-9.25,2.567-15.508,7.783-19.133 c12.85-8.933,39.75-1.917,49.008,1.525c4.409,1.65,9.342-0.592,10.992-5.008c1.65-4.408-1.113-9.316-5.521-10.975 c-2.3-0.858-14.196-5.169-29.129-6.544V140.8H256v18.631c-6.4,0.892-12.867,2.964-18.492,6.869 c-6.892,4.775-14.842,14.408-14.842,33.167c0,33.133,25.308,36.267,41.875,38.333c18.483,2.308,26.658,4.067,26.658,21.4 c0,9.25-2.533,15.508-7.75,19.133c-12.858,8.933-39.733,1.925-48.992-1.525c-4.408-1.642-9.333,0.592-10.983,5.008 c-1.65,4.408,0.05,9.317,4.458,10.975c2.3,0.86,15.267,5.154,28.067,6.527V320h17.067v-20.848 c8.533-0.891,13.94-2.887,19.558-6.785C299.517,287.592,308,277.958,308,259.2C308,226.067,283.092,222.933,266.525,220.867z"/> </g> </g> </g>
</svg>