<svg width="25" height="26" viewBox="0 0 25 26" fill="none" xmlns="http://www.w3.org/2000/svg">
<g id="Icon">
<path id="Path" d="M21.6428 3.5H3.64279C3.36665 3.5 3.14279 3.72386 3.14279 4V15H22.1428V4C22.1428 3.72386 21.9189 3.5 21.6428 3.5Z" stroke="#4883FF"/>
<path id="Path_2" d="M24.1428 15.1176C24.419 15.1176 24.6428 14.8938 24.6428 14.6176V3.5C24.6412 2.11997 23.5229 1.00165 22.1428 1H3.14282C1.7628 1.00165 0.644475 2.11997 0.642822 3.5V17.5C0.644475 18.88 1.7628 19.9983 3.14282 20H8.64282V22.2325L7.36532 23.0825C7.22584 23.1756 7.14229 23.3323 7.14282 23.5V24C7.14282 24.5523 7.59054 25 8.14282 25H17.1428C17.6951 25 18.1428 24.5523 18.1428 24V23.5C18.1428 23.3329 18.0594 23.1768 17.9203 23.084L16.6428 22.2325V20.0882C16.6428 19.8121 16.419 19.5882 16.1428 19.5882C15.8667 19.5882 15.6428 19.8121 15.6428 20.0882V22.5C15.6428 22.6671 15.7263 22.8232 15.8653 22.916L17.1428 23.7675V24H8.14282V23.7675L9.42032 22.9175C9.5598 22.8244 9.64335 22.6677 9.64282 22.5V20H22.1428C23.5229 19.9983 24.6412 18.88 24.6428 17.5V15C24.6428 14.7239 24.419 14.5 24.1428 14.5H1.52518C1.24903 14.5 1.02518 14.7239 1.02518 15C1.02518 15.2761 1.24903 15.5 1.52518 15.5H23.6428V17.5C23.6428 18.3284 22.9713 19 22.1428 19H3.14282C2.3144 19 1.64282 18.3284 1.64282 17.5V3.5C1.64282 2.67157 2.3144 2 3.14282 2H22.1428C22.9713 2 23.6428 2.67157 23.6428 3.5V14.6176C23.6428 14.8938 23.8667 15.1176 24.1428 15.1176Z" fill="#4883FF" stroke="#4883FF" stroke-width="0.4"/>
<path id="Path_3" d="M10.4963 5.35233C10.3011 5.15713 9.98457 5.15713 9.78932 5.35233L6.78932 8.35233C6.59413 8.54758 6.59413 8.86408 6.78932 9.05933L9.78932 12.0593C9.98551 12.2488 10.2974 12.2461 10.4902 12.0532C10.6831 11.8604 10.6858 11.5485 10.4963 11.3523L7.84982 8.70583L10.4963 6.05933C10.6915 5.86408 10.6915 5.54758 10.4963 5.35233Z" fill="#4883FF"/>
<path id="Path_4" d="M14.7893 12.0594C14.9846 12.2546 15.3011 12.2546 15.4963 12.0594L18.4963 9.05936C18.6915 8.86411 18.6915 8.54761 18.4963 8.35236L15.4963 5.35236C15.3708 5.22239 15.1849 5.17026 15.0101 5.21601C14.8353 5.26177 14.6988 5.3983 14.653 5.57311C14.6072 5.74792 14.6594 5.93383 14.7893 6.05936L17.4358 8.70586L14.7893 11.3524C14.5942 11.5476 14.5942 11.8641 14.7893 12.0594Z" fill="#4883FF"/>
</g>
</svg>
