<!DOCTYPE svg PUBLIC "-//W3C//DTD SVG 1.1//EN" "http://www.w3.org/Graphics/SVG/1.1/DTD/svg11.dtd">
<!-- Uploaded to: SVG Repo, www.svgrepo.com, Transformed by: SVG Repo Mixer Tools -->
<svg fill="#919793" height="800px" width="800px" version="1.1" id="Layer_1" xmlns="http://www.w3.org/2000/svg" xmlns:xlink="http://www.w3.org/1999/xlink" viewBox="0 0 511.994 511.994" xml:space="preserve" stroke="#919793">
<g id="SVGRepo_bgCarrier" stroke-width="0"/>
<g id="SVGRepo_tracerCarrier" stroke-linecap="round" stroke-linejoin="round"/>
<g id="SVGRepo_iconCarrier"> <g> <g> <path d="M490.659,0H383.993c-11.78,0-21.329,9.548-21.333,21.327H104.62c-30.201,0-54.656,22.412-54.656,52.651 c0,6.277,1.058,12.279,3.005,17.848c-16.668,8.814-27.901,25.838-27.901,46.365c0,6.156,1.013,12.037,2.881,17.5 c-16.687,8.651-27.947,25.424-27.947,45.966c0,15.765,5.959,29.037,15.781,38.516c-4.872,8.166-7.674,17.698-7.674,27.873 c0,30.291,24.613,51.947,54.869,51.947h127.808h4.634l-3.867,22.143c-6.013,28.091-5.779,64.493-0.964,97.092 c5.426,36.554,36.613,72.765,70.896,72.765h1.984c33.614,0,56.533-26.174,56.533-64c0-54.193,9.44-85.663,23.305-99.901 c5.488-5.635,9.901-7.005,12.239-6.849c-0.311-0.023,1.831,0.083,1.831,0.083h5.282v0.006c0,11.782,9.551,21.333,21.333,21.333 h106.667c11.782,0,21.333-9.551,21.333-21.333v-320C511.993,9.551,502.441,0,490.659,0z M358.21,298.66 c-13.928-0.877-30.525,4.317-45.472,19.666c-22.829,23.442-35.404,65.365-35.404,129.668c0,15.429-5.17,21.333-13.867,21.333 h-1.984c-10.009,0-26.061-18.639-28.69-36.348c-4.128-27.948-4.331-59.457,0.636-82.717l8.387-47.931 c2.28-13.052-7.765-25.004-21.015-25.004H62.977c-7.821,0-12.203-3.855-12.203-9.28c0-6.571,5.516-12.053,12.203-12.053h16.53 c0.043,0,0.084,0.006,0.127,0.006h48.363c11.782,0,21.333-9.551,21.333-21.333c0-11.782-9.551-21.333-21.333-21.333H88.23 c-0.091-0.001-0.18-0.006-0.272-0.006H57.473c-9.907,0-14.805-4.245-14.805-11.669c0-5.675,4.413-9.664,11.968-9.664h24.872 c0.043,0,0.084,0.006,0.127,0.006h48.363c11.782,0,21.333-9.551,21.333-21.333c0-11.782-9.551-21.333-21.333-21.333H79.908 c-0.091-0.001-0.178-0.006-0.269-0.006c-6.933,0-11.904-4.812-11.904-11.136c0-5.936,4.587-10.197,11.904-10.197h16.528 c0.043,0,0.084,0.006,0.127,0.006h53.035c11.782,0,21.333-9.551,21.333-21.333c0-11.782-9.551-21.333-21.333-21.333h-44.439 c-0.091-0.001-0.178-0.006-0.269-0.006c-6.869,0-11.989-4.983-11.989-11.349c0-5.803,4.562-9.984,11.989-9.984h258.039V298.66 H358.21z M469.326,320h-63.992c0-0.002,0-0.004,0-0.006V42.667h63.991V320z"/> </g> </g> </g>
</svg>