<svg width="36" height="36" viewBox="0 0 36 36" fill="none" xmlns="http://www.w3.org/2000/svg">
<g id="Online Education" clip-path="url(#clip0_1_122)">
<path id="Vector" d="M20.6999 28.35H14.3999L13.6499 26.325H2.32489V7.05002C2.32489 6.15002 3.07489 5.40002 3.97489 5.40002H32.0249C32.9249 5.40002 33.6749 6.15002 33.6749 7.05002V26.4H22.1999L20.6999 28.35ZM15.2249 27.225H20.1749L21.6749 25.2H32.5499V7.05002C32.5499 6.75002 32.3249 6.52502 32.0249 6.52502H3.97489C3.67489 6.52502 3.44989 6.75002 3.44989 7.05002V25.275H14.4749L15.2249 27.225Z" fill="white"/>
<path id="Vector_2" d="M30.5999 30.6H5.39989C2.69989 30.6 0.524894 28.425 0.524894 25.725V25.125H14.3999L15.1499 27.15H20.0999L21.5999 25.125H35.3999V25.725C35.4749 28.425 33.2249 30.6 30.5999 30.6ZM1.72489 26.325C2.02489 28.125 3.52489 29.475 5.39989 29.475H30.5249C32.3999 29.475 33.9749 28.125 34.1999 26.325H22.1999L20.6999 28.35H14.3999L13.6499 26.325H1.72489Z" fill="white"/>
<path id="Vector_3" d="M12.5249 9.375H6.74989V14.4H12.5249V9.375Z" fill="white"/>
<path id="Vector_4" d="M13.0499 14.925H6.14989V8.77502H13.0499V14.925ZM7.27489 13.8H11.9249V9.90002H7.27489V13.8Z" fill="white"/>
<path id="Vector_5" d="M12.5249 17.325H6.74989V22.3499H12.5249V17.325Z" fill="white"/>
<path id="Vector_6" d="M13.0499 22.95H6.14989V16.8H13.0499V22.95ZM7.27489 21.825H11.9249V17.925H7.27489V21.825Z" fill="white"/>
<path id="Vector_7" d="M29.5499 11.25H16.1249V12.375H29.5499V11.25Z" fill="white"/>
<path id="Vector_8" d="M29.5499 19.275H16.1249V20.4H29.5499V19.275Z" fill="white"/>
</g>
<defs>
<clipPath id="clip0_1_122">
<rect width="36" height="36" fill="white"/>
</clipPath>
</defs>
</svg>
