<!DOCTYPE svg PUBLIC "-//W3C//DTD SVG 1.1//EN" "http://www.w3.org/Graphics/SVG/1.1/DTD/svg11.dtd">
<!-- Uploaded to: SVG Repo, www.svgrepo.com, Transformed by: SVG Repo Mixer Tools -->
<svg fill="#FFFFFF" height="201px" width="201px" version="1.1" id="Layer_1" xmlns="http://www.w3.org/2000/svg" xmlns:xlink="http://www.w3.org/1999/xlink" viewBox="0 0 512.00 512.00" xml:space="preserve" stroke="#FFFFFF" stroke-width="0.00512">
<g id="SVGRepo_bgCarrier" stroke-width="0"/>
<g id="SVGRepo_tracerCarrier" stroke-linecap="round" stroke-linejoin="round"/>
<g id="SVGRepo_iconCarrier"> <g> <g> <path d="M486.881,68.409H25.119C11.268,68.409,0,79.677,0,93.528v324.944c0,13.851,11.268,25.119,25.119,25.119h94.419 c4.428,0,8.017-3.588,8.017-8.017c0-4.428-3.588-8.017-8.017-8.017H25.119c-5.01,0-9.086-4.076-9.086-9.086V93.528 c0-5.01,4.076-9.086,9.086-9.086h461.762c5.01,0,9.086,4.076,9.086,9.086v324.944c0,5.01-4.076,9.086-9.086,9.086H154.037 c-4.428,0-8.017,3.588-8.017,8.017c0,4.428,3.588,8.017,8.017,8.017h332.844c13.851,0,25.119-11.268,25.119-25.119V93.528 C512,79.677,500.732,68.409,486.881,68.409z"/> </g> </g> <g> <g> <path d="M452.676,111.165h-59.858c-4.428,0-8.017,3.588-8.017,8.017s3.588,8.017,8.017,8.017h59.858 c0.294,0,0.534,0.241,0.534,0.534v256.534c0,0.294-0.241,0.534-0.534,0.534H59.324c-0.294,0-0.534-0.241-0.534-0.534V127.733 c0-0.294,0.241-0.534,0.534-0.534h298.934c4.428,0,8.017-3.588,8.017-8.017s-3.588-8.017-8.017-8.017H59.324 c-9.136,0-16.568,7.432-16.568,16.568v256.534c0,9.136,7.432,16.568,16.568,16.568h393.353c9.136,0,16.568-7.432,16.568-16.568 V127.733C469.244,118.597,461.812,111.165,452.676,111.165z"/> </g> </g> <g> <g> <path d="M207.441,272.112c13.73-12.429,22.371-30.382,22.371-50.317c0-37.426-30.448-67.875-67.875-67.875 s-67.875,30.448-67.875,67.875c0,19.935,8.641,37.888,22.372,50.317l-21.943,64.316c-1.139,3.344,0.042,7.04,2.912,9.101 c2.87,2.061,6.748,2,9.554-0.15l14.926-11.44l4.822,18.179c0.905,3.414,3.94,5.834,7.469,5.956 c0.094,0.003,0.188,0.005,0.281,0.005c3.417,0,6.475-2.173,7.586-5.428l19.897-58.32l19.897,58.32 c1.111,3.255,4.167,5.428,7.586,5.428c0.093,0,0.187-0.002,0.281-0.005c3.531-0.122,6.565-2.542,7.469-5.956l4.822-18.179 l14.926,11.44c2.819,2.16,6.839,2.182,9.681,0.053c2.749-2.059,3.892-5.753,2.783-9.004L207.441,272.112z M135.415,322.416 c-1.014-3.823-1.707-7.895-5.845-9.579c-2.708-1.102-5.674-0.586-7.989,1.132c-1.134,0.842-2.244,1.72-3.365,2.579l11.884-34.831 c5.304,2.829,11.026,4.967,17.047,6.311L135.415,322.416z M161.937,273.637c-28.585,0-51.841-23.256-51.841-51.841 s23.256-51.841,51.841-51.841c28.585,0,51.841,23.256,51.841,51.841S190.523,273.637,161.937,273.637z M202.293,313.969 c-2.315-1.718-5.281-2.234-7.989-1.132c-4.137,1.684-4.83,5.756-5.845,9.579l-11.732-34.388c6.02-1.344,11.743-3.481,17.047-6.311 l11.884,34.831C204.537,315.689,203.428,314.811,202.293,313.969z"/> </g> </g> <g> <g> <path d="M161.937,179.574c-23.281,0-42.221,18.941-42.221,42.221s18.941,42.221,42.221,42.221s42.221-18.941,42.221-42.221 S185.218,179.574,161.937,179.574z M161.937,247.983c-14.441,0-26.188-11.747-26.188-26.188s11.747-26.188,26.188-26.188 s26.188,11.747,26.188,26.188S176.378,247.983,161.937,247.983z"/> </g> </g> <g> <g> <path d="M409.921,230.881h-17.102c-4.428,0-8.017,3.588-8.017,8.017s3.588,8.017,8.017,8.017h17.102 c4.428,0,8.017-3.588,8.017-8.017S414.349,230.881,409.921,230.881z"/> </g> </g> <g> <g> <path d="M298.756,282.188h-25.653c-4.428,0-8.017,3.588-8.017,8.017c0,4.428,3.588,8.017,8.017,8.017h25.653 c4.428,0,8.017-3.588,8.017-8.017C306.772,285.776,303.184,282.188,298.756,282.188z"/> </g> </g> <g> <g> <path d="M367.165,230.881h-25.653c-4.428,0-8.017,3.588-8.017,8.017s3.588,8.017,8.017,8.017h25.653 c4.428,0,8.017-3.588,8.017-8.017S371.593,230.881,367.165,230.881z"/> </g> </g> <g> <g> <path d="M315.858,230.881h-42.756c-4.428,0-8.017,3.588-8.017,8.017s3.588,8.017,8.017,8.017h42.756 c4.428,0,8.017-3.588,8.017-8.017S320.286,230.881,315.858,230.881z"/> </g> </g> <g> <g> <path d="M409.921,282.188h-85.511c-4.428,0-8.017,3.588-8.017,8.017c0,4.428,3.588,8.017,8.017,8.017h85.511 c4.428,0,8.017-3.588,8.017-8.017C417.937,285.776,414.349,282.188,409.921,282.188z"/> </g> </g> <g> <g> <path d="M397.094,153.921H285.929c-11.493,0-20.843,9.351-20.843,20.843s9.351,20.843,20.843,20.843h111.165 c11.493,0,20.843-9.351,20.843-20.843S408.587,153.921,397.094,153.921z M397.094,179.574H285.929c-2.652,0-4.81-2.158-4.81-4.81 s2.158-4.81,4.81-4.81h111.165c2.652,0,4.81,2.158,4.81,4.81S399.746,179.574,397.094,179.574z"/> </g> </g> <g> <g> <path d="M341.511,333.495h-68.409c-4.428,0-8.017,3.588-8.017,8.017c0,4.428,3.588,8.017,8.017,8.017h68.409 c4.428,0,8.017-3.588,8.017-8.017C349.528,337.083,345.94,333.495,341.511,333.495z"/> </g> </g> <g> <g> <path d="M409.921,333.495h-42.756c-4.428,0-8.017,3.588-8.017,8.017c0,4.428,3.588,8.017,8.017,8.017h42.756 c4.428,0,8.017-3.588,8.017-8.017C417.937,337.083,414.349,333.495,409.921,333.495z"/> </g> </g> </g>
</svg>